<?xml version="1.0" encoding="UTF-8"?>
<svg id="_圖層_1" data-name="圖層 1" xmlns="http://www.w3.org/2000/svg" viewBox="0 0 1036.01 215.53">
  <defs>
    <style>
      .cls-1 {
        fill: lime;
      }

      .cls-2 {
        fill: #f0f;
      }
    </style>
  </defs>
  <g>
    <path class="cls-1" d="m248.11,68.55h63.76c0,3.66-1.33,6.86-3.93,9.53-2.6,2.6-5.8,3.93-9.46,3.93h-36.91v68.88c0,3.73-1.33,6.93-3.93,9.53-2.6,2.6-5.8,3.93-9.53,3.93v-95.8Zm16.46,47.83c0-3.66,1.33-6.86,3.93-9.46,2.6-2.66,5.8-4,9.53-4h25.72c0,3.73-1.33,6.93-3.93,9.53-2.6,2.6-5.8,3.93-9.53,3.93h-25.72Z"/>
    <path class="cls-1" d="m360.83,103.79c-.73,2.07-1.8,3.8-3.26,5.33-2.6,2.6-5.8,3.93-9.53,3.93h-3.13c-5.26,0-9.73,1.87-13.39,5.53-3.73,3.66-5.6,8.13-5.6,13.39v18.99c0,2.2-.47,4.26-1.47,6.13-2.73,4.86-6.73,7.26-11.92,7.26v-64.75c3.66,0,6.86,1.33,9.46,3.93,1,1,1.8,2.07,2.46,3.33,5.86-4.86,12.66-7.26,20.45-7.26h16.59c0,1.47-.2,2.87-.67,4.2Z"/>
    <path class="cls-1" d="m370.29,154.89c-6.33-6.33-9.46-13.99-9.46-22.92s3.13-16.59,9.46-22.92c6.33-6.33,13.99-9.46,22.98-9.46s16.52,3.13,22.85,9.46c6.33,6.33,9.53,13.92,9.53,22.92s-3.2,16.59-9.53,22.92c-6.33,6.33-13.92,9.46-22.85,9.46s-16.65-3.13-22.98-9.46Zm36.31-9.53c3.73-3.66,5.6-8.13,5.6-13.39s-1.87-9.73-5.6-13.39c-3.66-3.73-8.13-5.6-13.32-5.6s-9.73,1.87-13.46,5.6c-3.66,3.66-5.53,8.13-5.53,13.39s1.87,9.73,5.53,13.39c3.73,3.66,8.19,5.53,13.46,5.53s9.66-1.87,13.32-5.53Z"/>
    <path class="cls-1" d="m490.93,160.42c-2.6-2.6-3.93-5.8-3.93-9.46v-18.99c0-5.33-1.87-9.79-5.66-13.46-3.8-3.67-8.39-5.46-13.79-5.46h-.2c-5.26.33-9.66,2.33-13.12,6.06-3.46,3.73-5.2,8.19-5.2,13.32v18.52c0,3.66-1.33,6.86-3.93,9.46-2.6,2.6-5.8,3.93-9.46,3.93v-64.75c3.66,0,6.86,1.33,9.46,3.93,1,1,1.8,2.07,2.46,3.33,5.86-4.86,12.66-7.26,20.45-7.26,8.93,0,16.52,3.2,22.85,9.53,6.33,6.33,9.53,13.92,9.53,22.85v32.38c-3.66,0-6.86-1.33-9.46-3.93Z"/>
    <path class="cls-1" d="m547.89,164.35c-7.33,0-13.79-2.13-19.45-6.46-8.66-6.73-12.99-15.32-12.99-25.92v-24.05h-13.72c0-1.67.4-3.26,1.27-4.73,2.33-4.06,6.46-6.79,12.46-8.19v-27.91c3.73,0,6.93,1.33,9.53,4,2.6,2.6,3.93,5.8,3.93,9.46v13.92h35.04c0,3.73-1.87,6.93-5.6,9.53-3.66,2.6-8.19,3.93-13.46,3.93h-15.99v23.18c0,5.26,1.87,9.73,5.53,13.39,3.73,3.66,8.19,5.53,13.46,5.53h.87c6.93,0,11.79,3.46,14.59,10.33.4,1.27.6,2.6.6,4h-16.06Z"/>
    <path class="cls-1" d="m598.32,164.35c-8.93,0-16.59-3.13-22.92-9.46-6.33-6.33-9.46-13.99-9.46-22.92s3.13-16.59,9.46-22.92c6.33-6.33,13.99-9.46,22.92-9.46s16.59,3.13,22.92,9.46c4.46,4.46,7.4,9.86,8.79,16.19.47,2.2.67,4.4.67,6.73s-.2,4.53-.67,6.66h-47.3c0-3.66,1.33-6.86,3.93-9.46,2.6-2.6,5.8-3.93,9.46-3.93h19.92c-1-2.6-2.4-4.8-4.33-6.73-3.66-3.67-8.13-5.53-13.39-5.53s-9.73,1.87-13.39,5.6c-3.66,3.66-5.53,8.13-5.53,13.39s1.87,9.73,5.53,13.39,8.13,5.53,13.39,5.53h12.79c3.86,0,7.13,1.4,9.79,4.26,2.4,2.6,3.6,5.66,3.6,9.19h-26.18Z"/>
    <path class="cls-1" d="m695.98,160.42c-2.6-2.6-3.93-5.8-3.93-9.46v-18.99c0-5.33-1.87-9.79-5.66-13.46-3.8-3.67-8.39-5.46-13.79-5.46h-.2c-5.26.33-9.66,2.33-13.12,6.06-3.46,3.73-5.2,8.19-5.2,13.32v18.52c0,3.66-1.33,6.86-3.93,9.46-2.6,2.6-5.8,3.93-9.46,3.93v-64.75c3.66,0,6.86,1.33,9.46,3.93,1,1,1.8,2.07,2.46,3.33,5.86-4.86,12.66-7.26,20.45-7.26,8.93,0,16.52,3.2,22.85,9.53,6.33,6.33,9.53,13.92,9.53,22.85v32.38c-3.66,0-6.86-1.33-9.46-3.93Z"/>
    <path class="cls-1" d="m724.89,154.89c-6.33-6.33-9.46-13.99-9.46-22.92s3.13-16.59,9.46-22.92c3.66-3.66,7.99-6.26,12.99-7.93,3.13-1,6.46-1.53,9.93-1.53h15.19c-.07,3.73-1.4,6.93-4,9.53-2.6,2.6-5.73,3.86-9.39,3.86h-1.8c-5.2,0-9.66,1.87-13.39,5.6-3.66,3.66-5.53,8.13-5.53,13.39s1.87,9.73,5.53,13.46c3.73,3.66,8.19,5.53,13.39,5.53s9.73-1.87,13.39-5.53c3.73-3.73,5.6-8.19,5.6-13.46v-49.57c0-3.66,1.33-6.86,3.93-9.46,2.6-2.6,5.8-3.93,9.46-3.93v62.96c0,8.93-3.2,16.59-9.53,22.92-6.33,6.33-13.92,9.46-22.85,9.46s-16.59-3.13-22.92-9.46Z"/>
    <path class="cls-1" d="m875.38,164.35l-.73-.07-.73.07-3.6-1c-3.6-1.53-6.2-4.13-7.73-7.79l-7.26-18.85-7.33,18.85c-1.53,3.66-4.06,6.26-7.66,7.79l-3.66,1-.73-.07-.73.07-3.66-1c-3.53-1.53-6.13-4.13-7.66-7.79l-33.71-87.01h4.06c5.66,0,9.93,2.93,12.79,8.73l28.91,74.75,12.66-32.64-19.72-50.83h4.06c5.66,0,9.93,2.93,12.79,8.73l9.59,24.78,9.59-24.78c2.86-5.8,7.13-8.73,12.79-8.73h4l-19.65,50.83,12.59,32.64,28.98-74.75c2.86-5.8,7.13-8.73,12.79-8.73h4.06l-33.78,87.01c-1.53,3.66-4.06,6.26-7.66,7.79l-3.66,1Z"/>
    <path class="cls-1" d="m919.81,112.98c0-3.66,1.33-6.86,3.93-9.46,2.66-2.6,5.86-3.93,9.53-3.93v51.3c0,3.73-1.33,6.93-3.93,9.53-2.6,2.6-5.8,3.93-9.53,3.93v-51.36Z"/>
    <path class="cls-1" d="m949.26,164.35c0-2.46.6-4.73,1.87-6.79l38.04-44.5h-26.31c-3.73,0-6.93-1.33-9.53-3.93-2.6-2.67-3.93-5.86-3.93-9.53h65.62c0,3-.87,5.66-2.6,8l-37.04,43.37h26.12c3.73,0,6.93,1.33,9.53,3.93,2.6,2.6,3.93,5.8,3.93,9.46h-65.69Z"/>
  </g>
  <g>
    <g>
      <path class="cls-1" d="m170.87,93.95c3.87,14.49,12.83,24.28,21.79,35.79.3.38.61.8.66,1.28.06.63-.33,1.21-.69,1.73-1.99,2.82-4.16,5.29-4.65,8.65-.62,4.28.73,9.63,1.88,13.73.69,2.44,2.08,5.24,4.6,5.41-.19,3.58-.03,7.18.48,10.72.24,1.67.57,3.35,1.34,4.85,3.21,6.18,11.02,7.01,17.2,7.66,8.39.89,16.96-.54,24.72-3.79.09-.04.19-.08.31-.12-5.37,1.27-10.94,1.69-16.44,1.11-6.18-.66-13.99-1.48-17.2-7.66-.78-1.5-1.1-3.18-1.34-4.85-.51-3.55-.67-7.15-.48-10.72-2.53-.17-3.92-2.98-4.6-5.41-1.15-4.1-2.5-9.45-1.88-13.73.58-4,4.14-6.1,5.24-9.66,1.03-3.34-1.37-4.48-3.73-6.35-4.84-3.82-9.6-7.86-13.43-12.72-3.4-4.3-7.5-7.6-9.71-12.83-1.38-3.28-3.57-5.76-5.13-8.98-.18-.37-.35-.75-.52-1.12.46,2.35.98,4.68,1.6,7Z"/>
      <path class="cls-1" d="m172.15,124.54c-.26,6.31-1.73,12.33-4.4,18.06-6.32-.26-12.34-1.72-18.07-4.39.26-6.31,1.73-12.33,4.4-18.06,6.32.26,12.34,1.72,18.07,4.39Z"/>
      <path class="cls-1" d="m140.38,45.86c-3.62,1.71-7.43,2.66-11.43,2.85-1.71-3.62-2.66-7.42-2.85-11.42,3.62-1.71,7.43-2.66,11.43-2.85,1.71,3.62,2.66,7.42,2.85,11.42Z"/>
      <path class="cls-1" d="m99.82,68.19c-4.18,5.28-9.22,9.56-15.12,12.83-5.29-4.18-9.57-9.22-12.84-15.11,4.18-5.28,9.22-9.56,15.12-12.83,5.29,4.18,9.57,9.22,12.84,15.11Z"/>
      <path class="cls-1" d="m241.33,183.55c-1.21.51-2.45.95-3.69,1.37-36.32,14.2-103.19-5.56-94.09-4.96,10.04.66,27.99-16.65,17.14-10.73s-26.52.04-29.54-5.2,7.9-17.96,9.69-19.53c.6-.53,2.99-1.71,6.07-3.29-1.25-.66-2.49-1.35-3.71-2.1,1.45-9.46,4.66-18.27,9.64-26.44,4.86.74,9.54,1.96,14.06,3.63-1.01-12.04-5.08-27.48-5.08-27.48-1.95-4.5-3.84-9-6.55-13.3-.88-1.39-8.82-13.84-10.93-12.81-23.5,11.45-28.69,3.05-30.27-16.42-1.58-19.47,25.48-37.51,25.48-37.51,0,0-13.25,1.99-23.71,5.15-9.53,2.88-21.02,19.45-26.62,33.04.22-.13.44-.28.66-.41,8.49,6.37,15.42,14.12,20.8,23.26-5.66,7.53-12.42,13.83-20.27,18.92,1,2.66,2.09,5,3.2,6.84,5.58,9.23,8.26,7.23,8.26,7.23,0,0,15.08-8.17,21.98-11.71,6.91-3.54,7.71-4.46,6.28,3.34-.91,19.35-15.96,23.06-17.45,20.9-1.49-2.16-.48-6.93-1.63-9.36-.12-.25-12.88,11.9-13.78,12.98-6.64,7.89-10.69,18.14-11.6,28.38-.09,1.05-.17,2.15-.68,3.07-.42.74-1.08,1.3-1.75,1.83-10.27,8.16-23.62,11.05-36.14,13.44-5.66,1.08-12.9,1.51-20.01-.77-14.98-4.81-19.58-12.79-19.58-12.79,0,0,1.3,19.19,45.86,23.43,44.55,4.24,103.05,34.26,141.67,29.45,38.61-4.81,52.44-20.23,52.44-20.23l.36-5.42c-.14,2.15-5.04,3.59-6.5,4.2Z"/>
    </g>
    <g>
      <path class="cls-2" d="m179.45,95.96c3.87,14.49,12.83,24.28,21.79,35.79.3.38.61.8.66,1.28.06.63-.33,1.21-.69,1.73-1.99,2.82-4.16,5.29-4.65,8.65-.62,4.28.73,9.63,1.88,13.73.69,2.44,2.08,5.24,4.6,5.41-.19,3.58-.03,7.18.48,10.72.24,1.67.57,3.35,1.34,4.85,3.21,6.18,11.02,7.01,17.2,7.66,8.39.89,16.96-.54,24.72-3.79.09-.04.19-.08.31-.12-5.37,1.27-10.94,1.69-16.44,1.11-6.18-.66-13.99-1.48-17.2-7.66-.78-1.5-1.1-3.18-1.34-4.85-.51-3.55-.67-7.15-.48-10.72-2.53-.17-3.92-2.98-4.6-5.41-1.15-4.1-2.5-9.45-1.88-13.73.58-4,4.14-6.1,5.24-9.66,1.03-3.34-1.37-4.48-3.73-6.35-4.84-3.82-9.6-7.86-13.43-12.72-3.4-4.3-7.5-7.6-9.71-12.83-1.38-3.28-3.57-5.76-5.13-8.98-.18-.37-.35-.75-.52-1.12.46,2.35.98,4.68,1.6,7Z"/>
      <path class="cls-2" d="m180.73,126.55c-.26,6.31-1.73,12.33-4.4,18.06-6.32-.26-12.34-1.72-18.07-4.39.26-6.31,1.73-12.33,4.4-18.06,6.32.26,12.34,1.72,18.07,4.39Z"/>
      <path class="cls-2" d="m148.96,47.88c-3.62,1.71-7.43,2.66-11.43,2.85-1.71-3.62-2.66-7.42-2.85-11.42,3.62-1.71,7.43-2.66,11.43-2.85,1.71,3.62,2.66,7.42,2.85,11.42Z"/>
      <path class="cls-2" d="m108.4,70.21c-4.18,5.28-9.22,9.56-15.12,12.83-5.29-4.18-9.57-9.22-12.84-15.11,4.18-5.28,9.22-9.56,15.12-12.83,5.29,4.18,9.57,9.22,12.84,15.11Z"/>
      <path class="cls-2" d="m249.91,185.56c-1.21.51-2.45.95-3.69,1.37-36.32,14.2-103.19-5.56-94.09-4.96,10.04.66,27.99-16.65,17.14-10.73-10.86,5.91-26.52.04-29.54-5.2s7.9-17.96,9.69-19.53c.6-.53,2.99-1.71,6.07-3.29-1.25-.66-2.49-1.35-3.71-2.1,1.45-9.46,4.66-18.27,9.64-26.44,4.86.74,9.54,1.96,14.06,3.63-1.01-12.04-5.08-27.48-5.08-27.48-1.95-4.5-3.84-9-6.55-13.3-.88-1.39-8.82-13.84-10.93-12.81-23.5,11.45-28.69,3.05-30.27-16.42-1.58-19.47,25.48-37.51,25.48-37.51,0,0-13.25,1.99-23.71,5.15-9.53,2.88-21.02,19.45-26.62,33.04.22-.13.44-.28.66-.41,8.49,6.37,15.42,14.12,20.8,23.26-5.66,7.53-12.42,13.83-20.27,18.92,1,2.66,2.09,5,3.2,6.84,5.58,9.23,8.26,7.23,8.26,7.23,0,0,15.08-8.17,21.98-11.71,6.91-3.54,7.71-4.46,6.28,3.34-.91,19.35-15.96,23.06-17.45,20.9-1.49-2.16-.48-6.93-1.63-9.36-.12-.25-12.88,11.9-13.78,12.98-6.64,7.89-10.69,18.14-11.6,28.38-.09,1.05-.17,2.15-.68,3.07-.42.74-1.08,1.3-1.75,1.83-10.27,8.16-23.62,11.05-36.14,13.44-5.66,1.08-12.9,1.51-20.01-.77-14.98-4.81-19.58-12.79-19.58-12.79,0,0,1.3,19.19,45.86,23.43,44.55,4.24,103.05,34.26,141.67,29.45,38.61-4.81,52.44-20.23,52.44-20.23,0,0,.35-5.39.36-5.42-.14,2.15-5.04,3.59-6.5,4.2Z"/>
    </g>
    <g>
      <path d="m174.87,93.66c3.87,14.49,12.83,24.28,21.79,35.79.3.38.61.8.66,1.28.06.63-.33,1.21-.69,1.73-1.99,2.82-4.16,5.29-4.65,8.65-.62,4.28.73,9.63,1.88,13.73.69,2.44,2.08,5.24,4.6,5.41-.19,3.58-.03,7.18.48,10.72.24,1.67.57,3.35,1.34,4.85,3.21,6.18,11.02,7.01,17.2,7.66,8.39.89,16.96-.54,24.72-3.79.09-.04.19-.08.31-.12-5.37,1.27-10.94,1.69-16.44,1.11-6.18-.66-13.99-1.48-17.2-7.66-.78-1.5-1.1-3.18-1.34-4.85-.51-3.55-.67-7.15-.48-10.72-2.53-.17-3.92-2.98-4.6-5.41-1.15-4.1-2.5-9.45-1.88-13.73.58-4,4.14-6.1,5.24-9.66,1.03-3.34-1.37-4.48-3.73-6.35-4.84-3.82-9.6-7.86-13.43-12.72-3.4-4.3-7.5-7.6-9.71-12.83-1.38-3.28-3.57-5.76-5.13-8.98-.18-.37-.35-.75-.52-1.12.46,2.35.98,4.68,1.6,7Z"/>
      <path d="m176.15,124.26c-.26,6.31-1.73,12.33-4.4,18.06-6.32-.26-12.34-1.72-18.07-4.39.26-6.31,1.73-12.33,4.4-18.06,6.32.26,12.34,1.72,18.07,4.39Z"/>
      <path d="m144.37,45.58c-3.62,1.71-7.43,2.66-11.43,2.85-1.71-3.62-2.66-7.42-2.85-11.42,3.62-1.71,7.43-2.66,11.43-2.85,1.71,3.62,2.66,7.42,2.85,11.42Z"/>
      <path d="m103.81,67.91c-4.18,5.28-9.22,9.56-15.12,12.83-5.29-4.18-9.57-9.22-12.84-15.11,4.18-5.28,9.22-9.56,15.12-12.83,5.29,4.18,9.57,9.22,12.84,15.11Z"/>
      <path d="m245.32,183.27c-1.21.51-2.45.95-3.69,1.37-36.32,14.2-103.19-5.56-94.09-4.96,10.04.66,27.99-16.65,17.14-10.73-10.86,5.91-26.52.04-29.54-5.2-3.02-5.24,7.9-17.96,9.69-19.53.6-.53,2.99-1.71,6.07-3.29-1.25-.66-2.49-1.35-3.71-2.1,1.45-9.46,4.66-18.27,9.64-26.44,4.86.74,9.54,1.96,14.06,3.63-1.01-12.04-5.08-27.48-5.08-27.48-1.95-4.5-3.84-9-6.55-13.3-.88-1.39-8.82-13.84-10.93-12.81-23.5,11.45-28.69,3.05-30.27-16.42-1.58-19.47,25.48-37.51,25.48-37.51,0,0-13.25,1.99-23.71,5.15-9.53,2.88-21.02,19.45-26.62,33.04.22-.13.44-.28.66-.41,8.49,6.37,15.42,14.12,20.8,23.26-5.66,7.53-12.42,13.83-20.27,18.92,1,2.66,2.09,5,3.2,6.84,5.58,9.23,8.26,7.23,8.26,7.23,0,0,15.08-8.17,21.98-11.71,6.91-3.54,7.71-4.46,6.28,3.34-.91,19.35-15.96,23.06-17.45,20.9-1.49-2.16-.48-6.93-1.63-9.36-.12-.25-12.88,11.9-13.78,12.98-6.64,7.89-10.69,18.14-11.6,28.38-.09,1.05-.17,2.15-.68,3.07-.42.74-1.08,1.3-1.75,1.83-10.27,8.16-23.62,11.05-36.14,13.44-5.66,1.08-12.9,1.51-20.01-.77-14.98-4.81-19.58-12.79-19.58-12.79,0,0,1.3,19.19,45.86,23.43,44.55,4.24,103.05,34.26,141.67,29.45,38.61-4.81,52.44-20.23,52.44-20.23l.36-5.42c-.14,2.15-5.04,3.59-6.5,4.2Z"/>
    </g>
  </g>
  <g>
    <path class="cls-2" d="m235.14,71.63h63.76c0,3.66-1.33,6.86-3.93,9.53-2.6,2.6-5.8,3.93-9.46,3.93h-36.91v68.88c0,3.73-1.33,6.93-3.93,9.53-2.6,2.6-5.8,3.93-9.53,3.93v-95.8Zm16.46,47.83c0-3.66,1.33-6.86,3.93-9.46,2.6-2.66,5.8-4,9.53-4h25.72c0,3.73-1.33,6.93-3.93,9.53-2.6,2.6-5.8,3.93-9.53,3.93h-25.72Z"/>
    <path class="cls-2" d="m347.86,106.87c-.73,2.07-1.8,3.8-3.26,5.33-2.6,2.6-5.8,3.93-9.53,3.93h-3.13c-5.26,0-9.73,1.87-13.39,5.53-3.73,3.66-5.6,8.13-5.6,13.39v18.99c0,2.2-.47,4.26-1.47,6.13-2.73,4.86-6.73,7.26-11.92,7.26v-64.75c3.66,0,6.86,1.33,9.46,3.93,1,1,1.8,2.07,2.46,3.33,5.86-4.86,12.66-7.26,20.45-7.26h16.59c0,1.47-.2,2.87-.67,4.2Z"/>
    <path class="cls-2" d="m357.32,157.97c-6.33-6.33-9.46-13.99-9.46-22.92s3.13-16.59,9.46-22.92c6.33-6.33,13.99-9.46,22.98-9.46s16.52,3.13,22.85,9.46c6.33,6.33,9.53,13.92,9.53,22.92s-3.2,16.59-9.53,22.92c-6.33,6.33-13.92,9.46-22.85,9.46s-16.65-3.13-22.98-9.46Zm36.31-9.53c3.73-3.66,5.6-8.13,5.6-13.39s-1.87-9.73-5.6-13.39c-3.66-3.73-8.13-5.6-13.32-5.6s-9.73,1.87-13.46,5.6c-3.66,3.66-5.53,8.13-5.53,13.39s1.87,9.73,5.53,13.39c3.73,3.66,8.19,5.53,13.46,5.53s9.66-1.87,13.32-5.53Z"/>
    <path class="cls-2" d="m477.96,163.5c-2.6-2.6-3.93-5.8-3.93-9.46v-18.99c0-5.33-1.87-9.79-5.66-13.46-3.8-3.67-8.39-5.46-13.79-5.46h-.2c-5.26.33-9.66,2.33-13.12,6.06-3.46,3.73-5.2,8.19-5.2,13.32v18.52c0,3.66-1.33,6.86-3.93,9.46-2.6,2.6-5.8,3.93-9.46,3.93v-64.75c3.66,0,6.86,1.33,9.46,3.93,1,1,1.8,2.07,2.46,3.33,5.86-4.86,12.66-7.26,20.45-7.26,8.93,0,16.52,3.2,22.85,9.53,6.33,6.33,9.53,13.92,9.53,22.85v32.38c-3.66,0-6.86-1.33-9.46-3.93Z"/>
    <path class="cls-2" d="m534.92,167.43c-7.33,0-13.79-2.13-19.45-6.46-8.66-6.73-12.99-15.32-12.99-25.92v-24.05h-13.72c0-1.67.4-3.26,1.27-4.73,2.33-4.06,6.46-6.79,12.46-8.19v-27.91c3.73,0,6.93,1.33,9.53,4,2.6,2.6,3.93,5.8,3.93,9.46v13.92h35.04c0,3.73-1.87,6.93-5.6,9.53-3.66,2.6-8.19,3.93-13.46,3.93h-15.99v23.18c0,5.26,1.87,9.73,5.53,13.39,3.73,3.66,8.19,5.53,13.46,5.53h.87c6.93,0,11.79,3.46,14.59,10.33.4,1.27.6,2.6.6,4h-16.06Z"/>
    <path class="cls-2" d="m585.35,167.43c-8.93,0-16.59-3.13-22.92-9.46-6.33-6.33-9.46-13.99-9.46-22.92s3.13-16.59,9.46-22.92c6.33-6.33,13.99-9.46,22.92-9.46s16.59,3.13,22.92,9.46c4.46,4.46,7.4,9.86,8.79,16.19.47,2.2.67,4.4.67,6.73s-.2,4.53-.67,6.66h-47.3c0-3.66,1.33-6.86,3.93-9.46,2.6-2.6,5.8-3.93,9.46-3.93h19.92c-1-2.6-2.4-4.8-4.33-6.73-3.66-3.67-8.13-5.53-13.39-5.53s-9.73,1.87-13.39,5.6c-3.66,3.66-5.53,8.13-5.53,13.39s1.87,9.73,5.53,13.39,8.13,5.53,13.39,5.53h12.79c3.86,0,7.13,1.4,9.79,4.26,2.4,2.6,3.6,5.66,3.6,9.19h-26.18Z"/>
    <path class="cls-2" d="m683.01,163.5c-2.6-2.6-3.93-5.8-3.93-9.46v-18.99c0-5.33-1.87-9.79-5.66-13.46-3.8-3.67-8.39-5.46-13.79-5.46h-.2c-5.26.33-9.66,2.33-13.12,6.06-3.46,3.73-5.2,8.19-5.2,13.32v18.52c0,3.66-1.33,6.86-3.93,9.46-2.6,2.6-5.8,3.93-9.46,3.93v-64.75c3.66,0,6.86,1.33,9.46,3.93,1,1,1.8,2.07,2.46,3.33,5.86-4.86,12.66-7.26,20.45-7.26,8.93,0,16.52,3.2,22.85,9.53,6.33,6.33,9.53,13.92,9.53,22.85v32.38c-3.66,0-6.86-1.33-9.46-3.93Z"/>
    <path class="cls-2" d="m711.92,157.97c-6.33-6.33-9.46-13.99-9.46-22.92s3.13-16.59,9.46-22.92c3.66-3.66,7.99-6.26,12.99-7.93,3.13-1,6.46-1.53,9.93-1.53h15.19c-.07,3.73-1.4,6.93-4,9.53-2.6,2.6-5.73,3.86-9.39,3.86h-1.8c-5.2,0-9.66,1.87-13.39,5.6-3.66,3.66-5.53,8.13-5.53,13.39s1.87,9.73,5.53,13.46c3.73,3.66,8.19,5.53,13.39,5.53s9.73-1.87,13.39-5.53c3.73-3.73,5.6-8.19,5.6-13.46v-49.57c0-3.66,1.33-6.86,3.93-9.46,2.6-2.6,5.8-3.93,9.46-3.93v62.96c0,8.93-3.2,16.59-9.53,22.92-6.33,6.33-13.92,9.46-22.85,9.46s-16.59-3.13-22.92-9.46Z"/>
    <path class="cls-2" d="m862.41,167.43l-.73-.07-.73.07-3.6-1c-3.6-1.53-6.2-4.13-7.73-7.79l-7.26-18.85-7.33,18.85c-1.53,3.66-4.06,6.26-7.66,7.79l-3.66,1-.73-.07-.73.07-3.66-1c-3.53-1.53-6.13-4.13-7.66-7.79l-33.71-87.01h4.06c5.66,0,9.93,2.93,12.79,8.73l28.91,74.75,12.66-32.64-19.72-50.83h4.06c5.66,0,9.93,2.93,12.79,8.73l9.59,24.78,9.59-24.78c2.86-5.8,7.13-8.73,12.79-8.73h4l-19.65,50.83,12.59,32.64,28.98-74.75c2.86-5.8,7.13-8.73,12.79-8.73h4.06l-33.78,87.01c-1.53,3.66-4.06,6.26-7.66,7.79l-3.66,1Z"/>
    <path d="m910.84,116.07c0-3.66,1.33-6.86,3.93-9.46,2.66-2.6,5.86-3.93,9.53-3.93v51.3c0,3.73-1.33,6.93-3.93,9.53-2.6,2.6-5.8,3.93-9.53,3.93v-51.36Z"/>
    <path class="cls-2" d="m936.29,167.43c0-2.46.6-4.73,1.87-6.79l38.04-44.5h-26.31c-3.73,0-6.93-1.33-9.53-3.93-2.6-2.67-3.93-5.86-3.93-9.53h65.62c0,3-.87,5.66-2.6,8l-37.04,43.37h26.12c3.73,0,6.93,1.33,9.53,3.93,2.6,2.6,3.93,5.8,3.93,9.46h-65.69Z"/>
  </g>
  <g>
    <path d="m243.14,71.63h63.76c0,3.66-1.33,6.86-3.93,9.53-2.6,2.6-5.8,3.93-9.46,3.93h-36.91v68.88c0,3.73-1.33,6.93-3.93,9.53-2.6,2.6-5.8,3.93-9.53,3.93v-95.8Zm16.46,47.83c0-3.66,1.33-6.86,3.93-9.46,2.6-2.66,5.8-4,9.53-4h25.72c0,3.73-1.33,6.93-3.93,9.53-2.6,2.6-5.8,3.93-9.53,3.93h-25.72Z"/>
    <path d="m355.86,106.87c-.73,2.07-1.8,3.8-3.26,5.33-2.6,2.6-5.8,3.93-9.53,3.93h-3.13c-5.26,0-9.73,1.87-13.39,5.53-3.73,3.66-5.6,8.13-5.6,13.39v18.99c0,2.2-.47,4.26-1.47,6.13-2.73,4.86-6.73,7.26-11.92,7.26v-64.75c3.66,0,6.86,1.33,9.46,3.93,1,1,1.8,2.07,2.46,3.33,5.86-4.86,12.66-7.26,20.45-7.26h16.59c0,1.47-.2,2.87-.67,4.2Z"/>
    <path d="m365.32,157.97c-6.33-6.33-9.46-13.99-9.46-22.92s3.13-16.59,9.46-22.92c6.33-6.33,13.99-9.46,22.98-9.46s16.52,3.13,22.85,9.46c6.33,6.33,9.53,13.92,9.53,22.92s-3.2,16.59-9.53,22.92c-6.33,6.33-13.92,9.46-22.85,9.46s-16.65-3.13-22.98-9.46Zm36.31-9.53c3.73-3.66,5.6-8.13,5.6-13.39s-1.87-9.73-5.6-13.39c-3.66-3.73-8.13-5.6-13.32-5.6s-9.73,1.87-13.46,5.6c-3.66,3.66-5.53,8.13-5.53,13.39s1.87,9.73,5.53,13.39c3.73,3.66,8.19,5.53,13.46,5.53s9.66-1.87,13.32-5.53Z"/>
    <path d="m485.96,163.5c-2.6-2.6-3.93-5.8-3.93-9.46v-18.99c0-5.33-1.87-9.79-5.66-13.46-3.8-3.67-8.39-5.46-13.79-5.46h-.2c-5.26.33-9.66,2.33-13.12,6.06-3.46,3.73-5.2,8.19-5.2,13.32v18.52c0,3.66-1.33,6.86-3.93,9.46-2.6,2.6-5.8,3.93-9.46,3.93v-64.75c3.66,0,6.86,1.33,9.46,3.93,1,1,1.8,2.07,2.46,3.33,5.86-4.86,12.66-7.26,20.45-7.26,8.93,0,16.52,3.2,22.85,9.53,6.33,6.33,9.53,13.92,9.53,22.85v32.38c-3.66,0-6.86-1.33-9.46-3.93Z"/>
    <path d="m542.92,167.43c-7.33,0-13.79-2.13-19.45-6.46-8.66-6.73-12.99-15.32-12.99-25.92v-24.05h-13.72c0-1.67.4-3.26,1.27-4.73,2.33-4.06,6.46-6.79,12.46-8.19v-27.91c3.73,0,6.93,1.33,9.53,4,2.6,2.6,3.93,5.8,3.93,9.46v13.92h35.04c0,3.73-1.87,6.93-5.6,9.53-3.66,2.6-8.19,3.93-13.46,3.93h-15.99v23.18c0,5.26,1.87,9.73,5.53,13.39,3.73,3.66,8.19,5.53,13.46,5.53h.87c6.93,0,11.79,3.46,14.59,10.33.4,1.27.6,2.6.6,4h-16.06Z"/>
    <path d="m593.35,167.43c-8.93,0-16.59-3.13-22.92-9.46-6.33-6.33-9.46-13.99-9.46-22.92s3.13-16.59,9.46-22.92c6.33-6.33,13.99-9.46,22.92-9.46s16.59,3.13,22.92,9.46c4.46,4.46,7.4,9.86,8.79,16.19.47,2.2.67,4.4.67,6.73s-.2,4.53-.67,6.66h-47.3c0-3.66,1.33-6.86,3.93-9.46,2.6-2.6,5.8-3.93,9.46-3.93h19.92c-1-2.6-2.4-4.8-4.33-6.73-3.66-3.67-8.13-5.53-13.39-5.53s-9.73,1.87-13.39,5.6c-3.66,3.66-5.53,8.13-5.53,13.39s1.87,9.73,5.53,13.39,8.13,5.53,13.39,5.53h12.79c3.86,0,7.13,1.4,9.79,4.26,2.4,2.6,3.6,5.66,3.6,9.19h-26.18Z"/>
    <path d="m692.01,163.5c-2.6-2.6-3.93-5.8-3.93-9.46v-18.99c0-5.33-1.87-9.79-5.66-13.46-3.8-3.67-8.39-5.46-13.79-5.46h-.2c-5.26.33-9.66,2.33-13.12,6.06-3.46,3.73-5.2,8.19-5.2,13.32v18.52c0,3.66-1.33,6.86-3.93,9.46-2.6,2.6-5.8,3.93-9.46,3.93v-64.75c3.66,0,6.86,1.33,9.46,3.93,1,1,1.8,2.07,2.46,3.33,5.86-4.86,12.66-7.26,20.45-7.26,8.93,0,16.52,3.2,22.85,9.53,6.33,6.33,9.53,13.92,9.53,22.85v32.38c-3.66,0-6.86-1.33-9.46-3.93Z"/>
    <path d="m719.92,158.97c-6.33-6.33-9.46-13.99-9.46-22.92s3.13-16.59,9.46-22.92c3.66-3.66,7.99-6.26,12.99-7.93,3.13-1,6.46-1.53,9.93-1.53h15.19c-.07,3.73-1.4,6.93-4,9.53-2.6,2.6-5.73,3.86-9.39,3.86h-1.8c-5.2,0-9.66,1.87-13.39,5.6-3.66,3.66-5.53,8.13-5.53,13.39s1.87,9.73,5.53,13.46c3.73,3.66,8.19,5.53,13.39,5.53s9.73-1.87,13.39-5.53c3.73-3.73,5.6-8.19,5.6-13.46v-49.57c0-3.66,1.33-6.86,3.93-9.46,2.6-2.6,5.8-3.93,9.46-3.93v62.96c0,8.93-3.2,16.59-9.53,22.92-6.33,6.33-13.92,9.46-22.85,9.46s-16.59-3.13-22.92-9.46Z"/>
    <path d="m870.41,167.43l-.73-.07-.73.07-3.6-1c-3.6-1.53-6.2-4.13-7.73-7.79l-7.26-18.85-7.33,18.85c-1.53,3.66-4.06,6.26-7.66,7.79l-3.66,1-.73-.07-.73.07-3.66-1c-3.53-1.53-6.13-4.13-7.66-7.79l-33.71-87.01h4.06c5.66,0,9.93,2.93,12.79,8.73l28.91,74.75,12.66-32.64-19.72-50.83h4.06c5.66,0,9.93,2.93,12.79,8.73l9.59,24.78,9.59-24.78c2.86-5.8,7.13-8.73,12.79-8.73h4l-19.65,50.83,12.59,32.64,28.98-74.75c2.86-5.8,7.13-8.73,12.79-8.73h4.06l-33.78,87.01c-1.53,3.66-4.06,6.26-7.66,7.79l-3.66,1Z"/>
    <path class="cls-2" d="m916.84,116.07c0-3.66,1.33-6.86,3.93-9.46,2.66-2.6,5.86-3.93,9.53-3.93v51.3c0,3.73-1.33,6.93-3.93,9.53-2.6,2.6-5.8,3.93-9.53,3.93v-51.36Z"/>
    <path d="m944.29,167.43c0-2.46.6-4.73,1.87-6.79l38.04-44.5h-26.31c-3.73,0-6.93-1.33-9.53-3.93-2.6-2.67-3.93-5.86-3.93-9.53h65.62c0,3-.87,5.66-2.6,8l-37.04,43.37h26.12c3.73,0,6.93,1.33,9.53,3.93,2.6,2.6,3.93,5.8,3.93,9.46h-65.69Z"/>
  </g>
  <g>
    <path class="cls-1" d="m919,65.75l3.49,6.37c1.09,1.99,2.73,3.63,4.72,4.72l6.38,3.48-5.53,3.02c-2.55,1.39-4.65,3.49-6.04,6.04l-3.02,5.52-3.07-5.61c-1.36-2.49-3.41-4.54-5.9-5.9l-5.62-3.07,6.11-3.34c2.17-1.18,3.95-2.97,5.13-5.13l3.34-6.11Z"/>
    <path d="m923,65.75l3.49,6.37c1.09,1.99,2.73,3.63,4.72,4.72l6.38,3.48-5.53,3.02c-2.55,1.39-4.65,3.49-6.04,6.04l-3.02,5.52-3.07-5.61c-1.36-2.49-3.41-4.54-5.9-5.9l-5.62-3.07,6.11-3.34c2.17-1.18,3.95-2.97,5.13-5.13l3.34-6.11Z"/>
    <path class="cls-2" d="m929,65.75l3.49,6.37c1.09,1.99,2.73,3.63,4.72,4.72l6.38,3.48-5.53,3.02c-2.55,1.39-4.65,3.49-6.04,6.04l-3.02,5.52-3.07-5.61c-1.36-2.49-3.41-4.54-5.9-5.9l-5.62-3.07,6.11-3.34c2.17-1.18,3.95-2.97,5.13-5.13l3.34-6.11Z"/>
  </g>
</svg>